<?xml version="1.0" encoding="utf-8"?>
<!-- Generator: Adobe Illustrator 18.1.0, SVG Export Plug-In . SVG Version: 6.00 Build 0)  -->
<svg version="1.1" id="Layer_1" xmlns="http://www.w3.org/2000/svg" xmlns:xlink="http://www.w3.org/1999/xlink" x="0px" y="0px"
	 viewBox="0 0 37.5 37.3" enable-background="new 0 0 37.5 37.3" xml:space="preserve">
<g>
	<g>
		<path fill="#53ABDE" d="M30.6,6.8c1.3,1.3,0.6,2.4-1.3,4.3c-0.8,0.8-0.8,2.2,0,3c1.4,1.4,3,0,3,0l0.6-0.6c0.9-0.9,2.3-0.9,3.2,0
			c0.9,0.9,0.9,2.3,0,3.2L29,23.8c-0.9,0.9-2.3,0.9-3.2,0c-0.9-0.9-0.9-2.3,0-3.2l0.6-0.6c0.7-0.7,1-2,0-3c-0.8-0.8-2-0.8-2.7-0.2
			l-9.8,9.8c-0.9,0.9-2.3,0.9-3.2,0c-0.9-0.9-0.9-2.3,0-3.2l8.9-8.9c1.6-1.6,1.9-4.5,0-6.4c-3.4-3.4-9.8-3.7-9.8-3.7
			C18.3-1.3,28,3.5,30.6,6.8"/>
	</g>
	<g>
		<defs>
			<path id="SVGID_1_" d="M9.7,4.5c0,0,6.4,0.3,9.8,3.7c1.9,1.9,1.6,4.8,0,6.4l-8.9,8.9c-0.9,0.9-0.9,2.3,0,3.2
				c0.9,0.9,2.3,0.9,3.2,0l9.8-9.8c0.7-0.6,1.9-0.6,2.7,0.2c1,1,0.7,2.3,0,3l-0.6,0.6c-0.9,0.9-0.9,2.3,0,3.2c0.9,0.9,2.3,0.9,3.2,0
				l7.1-7.1c0.9-0.9,0.9-2.3,0-3.2c-0.9-0.9-2.3-0.9-3.2,0l-0.6,0.6c0,0-1.6,1.3-3,0c-0.8-0.8-0.8-2.2,0-3c1.9-1.9,2.6-3,1.3-4.3
				c-1.7-2.2-6.6-5-12.1-5C15.6,1.8,12.6,2.5,9.7,4.5"/>
		</defs>
		<clipPath id="SVGID_2_">
			<use xlink:href="#SVGID_1_"  overflow="visible"/>
		</clipPath>
		<polygon clip-path="url(#SVGID_2_)" fill="#53ABDE" points="0.1,37.3 37.5,0 0,0 		"/>
	</g>
	<path fill="#F9A01B" d="M35.5,32.2c0.9-0.9,0.9-2.3,0-3.2c-0.9-0.9-2.3-0.9-3.2,0c-0.9-0.9-2.3-0.9-3.2,0c-0.9,0.9-0.9,2.3,0,3.2
		c-0.9,0.9-0.9,2.3,0,3.2c0.9,0.9,2.3,0.9,3.2,0c0.9,0.9,2.3,0.9,3.2,0C36.4,34.5,36.4,33.1,35.5,32.2"/>
	<g>
		<path fill="#DBB446" d="M17.9,25.5c0,0-0.1,0.1-0.1,0.1l-9.7,9.7c-1.7,1.7-4.5,1.7-6.2,0c-1.7-1.7-1.7-4.5,0-6.2l9.7-9.7
			c0,0,0.1-0.1,0.1-0.1c1.7-1.6,4.4-1.6,6.1,0.1C19.5,21.1,19.5,23.8,17.9,25.5z"/>
		<path fill="#495353" d="M17.9,25.5l-6.2-6.2c1.7-1.6,4.4-1.6,6.1,0.1C19.5,21.1,19.5,23.8,17.9,25.5z"/>
	</g>
</g>
</svg>
