<?xml version="1.0" encoding="utf-8"?>
<!-- Generator: Adobe Illustrator 18.1.0, SVG Export Plug-In . SVG Version: 6.00 Build 0)  -->
<svg version="1.1" id="Layer_1" xmlns="http://www.w3.org/2000/svg" xmlns:xlink="http://www.w3.org/1999/xlink" x="0px" y="0px"
	 viewBox="0 0 36.2 36.2" enable-background="new 0 0 36.2 36.2" xml:space="preserve">
<g>
	<path fill="#CF2127" d="M32,13.6h-0.2c-0.2-0.7-0.5-1.3-0.8-2l0.1-0.1c1.7-1.7,1.7-4.3,0-6l-0.4-0.4c-1.7-1.7-4.3-1.7-6,0l-0.1,0.1
		c-0.6-0.3-1.3-0.6-2-0.8V4.2c0-2.3-1.9-4.2-4.2-4.2h-0.6c-2.3,0-4.2,1.9-4.2,4.2v0.2c-0.7,0.2-1.3,0.5-2,0.8l-0.1-0.1
		c-1.7-1.7-4.3-1.7-6,0L5.1,5.5c-1.7,1.7-1.7,4.3,0,6l0.1,0.1c-0.3,0.6-0.6,1.3-0.8,2H4.2c-2.3,0-4.2,1.9-4.2,4.2v0.6
		c0,2.3,1.9,4.2,4.2,4.2h0.2c0.2,0.7,0.5,1.3,0.8,2l-0.1,0.1c-1.7,1.7-1.7,4.3,0,6l0.4,0.4c1.7,1.7,4.3,1.7,6,0l0.1-0.1
		c0.6,0.3,1.3,0.6,2,0.8V32c0,2.3,1.9,4.2,4.2,4.2h0.6c2.3,0,4.2-1.9,4.2-4.2v-0.2c0.7-0.2,1.3-0.5,2-0.8l0.1,0.1
		c1.7,1.7,4.3,1.7,6,0l0.4-0.4c1.7-1.7,1.7-4.3,0-6L31,24.6c0.3-0.6,0.6-1.3,0.8-2H32c2.3,0,4.2-1.9,4.2-4.2v-0.6
		C36.2,15.5,34.3,13.6,32,13.6 M18.1,22.6c-2.5,0-4.5-2-4.5-4.5c0-2.5,2-4.5,4.5-4.5c2.5,0,4.5,2,4.5,4.5
		C22.6,20.6,20.6,22.6,18.1,22.6"/>
	<path fill="#F9A01B" d="M18.1,9c-5,0-9.1,4.1-9.1,9c0,5,4.1,9.1,9.1,9.1c5,0,9-4.1,9-9.1C27.2,13.1,23.1,9,18.1,9 M18.1,22.6
		c-2.5,0-4.5-2-4.5-4.5c0-2.5,2-4.5,4.5-4.5c2.5,0,4.5,2,4.5,4.5C22.6,20.6,20.6,22.6,18.1,22.6"/>
	<path fill="#FFCE1E" d="M18.1,9c-5,0-9.1,4.1-9.1,9c0,5,4.1,9.1,9.1,9.1c5,0,9-4.1,9-9.1C27.2,13.1,23.1,9,18.1,9 M18.1,22.6
		c-2.5,0-4.5-2-4.5-4.5c0-2.5,2-4.5,4.5-4.5c2.5,0,4.5,2,4.5,4.5C22.6,20.6,20.6,22.6,18.1,22.6"/>
</g>
</svg>
