<?xml version="1.0" encoding="utf-8"?>
<!-- Generator: Adobe Illustrator 18.1.0, SVG Export Plug-In . SVG Version: 6.00 Build 0)  -->
<svg version="1.1" id="Layer_1" xmlns="http://www.w3.org/2000/svg" xmlns:xlink="http://www.w3.org/1999/xlink" x="0px" y="0px"
	 viewBox="0 0 44 36.4" enable-background="new 0 0 44 36.4" xml:space="preserve">
<g>
	<path fill="#FFCE1E" d="M1.2,35.1c0,0-1-8,7.8-16.8l9,9C18.1,27.3,11.9,35.1,1.2,35.1"/>
	<g>
		<defs>
			<path id="SVGID_1_" d="M15.1,8.4L15.1,8.4c-0.8,0.7-1.9,1.2-3,1.2c-0.3,0-0.7,0-1-0.1c-0.7-0.2-1.3-0.2-2-0.2
				c-5,0-9.1,4.1-9.1,9.1c0,1.6,0.4,3.2,1.2,4.5c1.6-2.7,4.5-4.5,7.8-4.5c0,5,4.1,9,9,9c0,3.3-1.8,6.3-4.5,7.8
				c1.3,0.8,2.9,1.2,4.5,1.2c5,0,9.1-4.1,9.1-9.1c0-0.8-0.1-1.6-0.3-2.3c0-0.3-0.1-0.5-0.1-0.8c0-1.1,0.4-2,1-2.8
				c13-14.5,7.1-20,7.1-20l0,0c-0.4-0.3-1.6-1.2-4-1.2C27.7,0.2,22.6,1.8,15.1,8.4"/>
		</defs>
		<clipPath id="SVGID_2_">
			<use xlink:href="#SVGID_1_"  overflow="visible"/>
		</clipPath>
		<path clip-path="url(#SVGID_2_)" fill="#CF2127" d="M26.8,24.2c0-1.1,0.4-2,1-2.8c13-14.5,7.1-20,7.1-20l0,0
			c-0.9-0.8-6.6-4.6-19.7,7l0,0c-0.8,0.7-1.9,1.2-3,1.2c-0.3,0-0.7,0-1-0.1c-0.7-0.2-1.3-0.2-2-0.2c-5,0-9,4.1-9,9.1
			c0,1.6,0.4,3.2,1.2,4.5c1.6-2.7,4.5-4.5,7.8-4.5c0,5,4.1,9,9,9c0,3.4-1.8,6.3-4.5,7.8c1.3,0.8,2.9,1.2,4.5,1.2
			c5,0,9.1-4.1,9.1-9.1c0-0.8-0.1-1.6-0.3-2.3C26.8,24.8,26.8,24.5,26.8,24.2"/>
		<path clip-path="url(#SVGID_2_)" fill="#FFCE1E" d="M44,1.4c0,5-4.1,9.1-9,9.1c-5,0-9.1-4.1-9.1-9.1c0-5,4.1-9,9.1-9
			C39.9-7.6,44-3.6,44,1.4"/>
	</g>
	<g>
		<defs>
			<path id="SVGID_3_" d="M25.9,1.3c0,0.1,0,0.1,0,0.2c0,5,4.1,9.1,9,9.1c0.1,0,0.1,0,0.2,0c2.6-6.5-0.3-9.1-0.3-9.1l0,0
				c-0.4-0.3-1.6-1.2-4-1.2C29.5,0.2,27.9,0.5,25.9,1.3"/>
		</defs>
		<clipPath id="SVGID_4_">
			<use xlink:href="#SVGID_3_"  overflow="visible"/>
		</clipPath>
	</g>
</g>
</svg>
