<?xml version="1.0" encoding="utf-8"?>
<!-- Generator: Adobe Illustrator 18.1.0, SVG Export Plug-In . SVG Version: 6.00 Build 0)  -->
<svg version="1.1" id="Layer_1" xmlns="http://www.w3.org/2000/svg" xmlns:xlink="http://www.w3.org/1999/xlink" x="0px" y="0px"
	 viewBox="0 0 33.8 33.8" enable-background="new 0 0 33.8 33.8" xml:space="preserve">
<g>
	<path fill="#CF2127" d="M33.8,16.9C33.8,7.6,26.2,0,16.9,0S0,7.6,0,16.9c0,9.3,7.6,16.9,16.9,16.9S33.8,26.2,33.8,16.9"/>
	<path fill="#F0EFEF" d="M29.3,16.9c0-6.9-5.6-12.4-12.4-12.4S4.5,10,4.5,16.9c0,6.9,5.6,12.4,12.4,12.4S29.3,23.8,29.3,16.9"/>
	<path fill="#8EACAC" d="M17,5.8c-0.9,0-1.6,0.7-1.6,1.6C15.4,8.3,16.1,9,17,9c0.9,0,1.6-0.7,1.6-1.6C18.5,6.5,17.8,5.8,17,5.8"/>
	<path fill="#8EACAC" d="M10.5,8.7c-0.9,0-1.6,0.7-1.6,1.6c0,0.9,0.7,1.6,1.6,1.6c0.9,0,1.6-0.7,1.6-1.6C12.1,9.4,11.4,8.7,10.5,8.7
		"/>
	<path fill="#8EACAC" d="M17,24.8c-0.9,0-1.6,0.7-1.6,1.6c0,0.9,0.7,1.6,1.6,1.6c0.9,0,1.6-0.7,1.6-1.6C18.5,25.5,17.8,24.8,17,24.8
		"/>
	<path fill="#8EACAC" d="M23.6,21.7c-0.9,0-1.6,0.7-1.6,1.6c0,0.9,0.7,1.6,1.6,1.6c0.9,0,1.6-0.7,1.6-1.6
		C25.1,22.4,24.4,21.7,23.6,21.7"/>
	<path fill="#8EACAC" d="M10.5,21.7c-0.9,0-1.6,0.7-1.6,1.6c0,0.9,0.7,1.6,1.6,1.6c0.9,0,1.6-0.7,1.6-1.6
		C12.1,22.4,11.4,21.7,10.5,21.7"/>
	<path fill="#8EACAC" d="M23.6,11.9c0.9,0,1.6-0.7,1.6-1.6c0-0.9-0.7-1.6-1.6-1.6c-0.9,0-1.6,0.7-1.6,1.6
		C22,11.2,22.7,11.9,23.6,11.9"/>
	<path fill="#8EACAC" d="M26.5,15.3c-0.9,0-1.6,0.7-1.6,1.6c0,0.9,0.7,1.6,1.6,1.6c0.9,0,1.6-0.7,1.6-1.6
		C28.1,16,27.3,15.3,26.5,15.3"/>
	<path fill="#8EACAC" d="M7.7,15.3c-0.9,0-1.6,0.7-1.6,1.6c0,0.9,0.7,1.6,1.6,1.6s1.6-0.7,1.6-1.6C9.3,16,8.6,15.3,7.7,15.3"/>
	<path fill="#FFCE1E" d="M19.5,16.3l2.9-6.6c0.5-1.1,0-2.5-1.2-3c-1.1-0.5-2.5,0-3,1.2l-3.5,8c-0.4,0.9-0.2,1.8,0.4,2.5
		c0.1,0.1,0.1,0.2,0.2,0.2l3.2,3.2c0.9,0.9,2.3,0.9,3.2,0c0.9-0.9,0.9-2.3,0-3.2L19.5,16.3z"/>
</g>
</svg>
