<?xml version="1.0" encoding="utf-8"?>
<!-- Generator: Adobe Illustrator 18.1.0, SVG Export Plug-In . SVG Version: 6.00 Build 0)  -->
<svg version="1.1" id="Layer_1" xmlns="http://www.w3.org/2000/svg" xmlns:xlink="http://www.w3.org/1999/xlink" x="0px" y="0px"
	 viewBox="0 0 33.7 33.7" enable-background="new 0 0 33.7 33.7" xml:space="preserve">
<g>
	<g>
		<path fill="#495353" d="M33.7,16.8c0,9.3-7.5,16.8-16.8,16.8C7.5,33.7,0,26.1,0,16.8C0,7.5,7.5,0,16.8,0
			C26.1,0,33.7,7.5,33.7,16.8"/>
	</g>
	<g>
		<path fill="#72C5EE" d="M30,16.8C30,24.1,24.1,30,16.8,30C9.6,30,3.7,24.1,3.7,16.8S9.6,3.7,16.8,3.7C24.1,3.7,30,9.6,30,16.8"/>
	</g>
	<g>
		<path fill="#CF2127" d="M25.9,16.8c0,5-4.1,9-9,9c-5,0-9.1-4.1-9.1-9c0-5,4.1-9,9.1-9C21.8,7.8,25.9,11.8,25.9,16.8"/>
	</g>
	<g>
		<path fill="#FFCE1E" d="M21.4,16.8c0,2.5-2,4.5-4.5,4.5c-2.5,0-4.5-2-4.5-4.5c0-2.5,2-4.5,4.5-4.5C19.3,12.3,21.4,14.3,21.4,16.8"
			/>
	</g>
</g>
</svg>
