<?xml version="1.0" encoding="utf-8"?>
<!-- Generator: Adobe Illustrator 18.1.0, SVG Export Plug-In . SVG Version: 6.00 Build 0)  -->
<svg version="1.1" id="Layer_1" xmlns="http://www.w3.org/2000/svg" xmlns:xlink="http://www.w3.org/1999/xlink" x="0px" y="0px"
	 viewBox="0 0 36.2 35" enable-background="new 0 0 36.2 35" xml:space="preserve">
<g>
	<path fill="#FFCE1E" d="M25.7,0H10.6C7.1,0,4.2,2.9,4.2,6.4v5.2c0,3.5,2.9,6.4,6.4,6.4h15.1c3.5,0,6.4-2.9,6.4-6.4V6.4
		C32.1,2.9,29.2,0,25.7,0 M27.5,11.7c0,2.4-1.9,3.8-4.4,3.8h-9.9c-2.4,0-4.4-1.4-4.4-3.8V8.2c0-2.4,1.9-4.4,4.4-4.4h9.9
		c2.4,0,4.4,1.9,4.4,4.4V11.7z"/>
	<g>
		<path fill="#CF2127" d="M36.2,12c0-2.3-1.9-4.2-4.2-4.2H4.2C1.9,7.8,0,9.7,0,12v18.7C0,33.1,1.9,35,4.2,35H32
			c2.3,0,4.2-1.9,4.2-4.2V12z"/>
	</g>
	<rect x="0" y="18.5" fill="#961B1E" width="36.2" height="4.5"/>
	<path fill="#F9A01B" d="M32.1,23c0,1.2-1,2.3-2.3,2.3c-1.3,0-2.3-1-2.3-2.3v-4.5c0-1.3,1-2.3,2.3-2.3c1.2,0,2.3,1,2.3,2.3V23z"/>
	<path fill="#FFCE1E" d="M8.7,23c0,1.2-1,2.3-2.3,2.3c-1.3,0-2.3-1-2.3-2.3v-4.5c0-1.3,1-2.3,2.3-2.3c1.2,0,2.3,1,2.3,2.3V23z"/>
</g>
</svg>
