<svg xmlns="http://www.w3.org/2000/svg" viewBox="0 0 36.2 35"><path fill="#FFCE1E" d="M25.7 0H10.6C7.1 0 4.2 2.9 4.2 6.4v5.2c0 3.5 2.9 6.4 6.4 6.4h15.1c3.5 0 6.4-2.9 6.4-6.4V6.4c0-3.5-2.9-6.4-6.4-6.4m1.8 11.7c0 2.4-1.9 3.8-4.4 3.8h-9.9c-2.4 0-4.4-1.4-4.4-3.8V8.2c0-2.4 1.9-4.4 4.4-4.4h9.9c2.4 0 4.4 1.9 4.4 4.4v3.5z"/><path fill="#CF2127" d="M36.2 12c0-2.3-1.9-4.2-4.2-4.2H4.2C1.9 7.8 0 9.7 0 12v18.7C0 33.1 1.9 35 4.2 35H32c2.3 0 4.2-1.9 4.2-4.2V12z"/><path fill="#961B1E" d="M0 18.5h36.2V23H0z"/><path fill="#F9A01B" d="M32.1 23c0 1.2-1 2.3-2.3 2.3-1.3 0-2.3-1-2.3-2.3v-4.5c0-1.3 1-2.3 2.3-2.3 1.2 0 2.3 1 2.3 2.3V23z"/><path fill="#FFCE1E" d="M8.7 23c0 1.2-1 2.3-2.3 2.3-1.3 0-2.3-1-2.3-2.3v-4.5c0-1.3 1-2.3 2.3-2.3 1.2 0 2.3 1 2.3 2.3V23z"/></svg>