<svg xmlns="http://www.w3.org/2000/svg" viewBox="0 0 36.2 36.2"><path fill="#CF2127" d="M32 13.6h-.2c-.2-.7-.5-1.3-.8-2l.1-.1c1.7-1.7 1.7-4.3 0-6l-.4-.4c-1.7-1.7-4.3-1.7-6 0l-.1.1c-.6-.3-1.3-.6-2-.8v-.2c0-2.3-1.9-4.2-4.2-4.2h-.6c-2.3 0-4.2 1.9-4.2 4.2v.2c-.7.2-1.3.5-2 .8l-.1-.1c-1.7-1.7-4.3-1.7-6 0l-.4.4c-1.7 1.7-1.7 4.3 0 6l.1.1c-.3.6-.6 1.3-.8 2h-.2c-2.3 0-4.2 1.9-4.2 4.2v.6c0 2.3 1.9 4.2 4.2 4.2h.2c.2.7.5 1.3.8 2l-.1.1c-1.7 1.7-1.7 4.3 0 6l.4.4c1.7 1.7 4.3 1.7 6 0l.1-.1c.6.3 1.3.6 2 .8v.2c0 2.3 1.9 4.2 4.2 4.2h.6c2.3 0 4.2-1.9 4.2-4.2v-.2c.7-.2 1.3-.5 2-.8l.1.1c1.7 1.7 4.3 1.7 6 0l.4-.4c1.7-1.7 1.7-4.3 0-6l-.1-.1c.3-.6.6-1.3.8-2h.2c2.3 0 4.2-1.9 4.2-4.2v-.6c0-2.3-1.9-4.2-4.2-4.2m-13.9 9c-2.5 0-4.5-2-4.5-4.5s2-4.5 4.5-4.5 4.5 2 4.5 4.5-2 4.5-4.5 4.5"/><path fill="#F9A01B" d="M18.1 9c-5 0-9.1 4.1-9.1 9 0 5 4.1 9.1 9.1 9.1s9-4.1 9-9.1c.1-4.9-4-9-9-9m0 13.6c-2.5 0-4.5-2-4.5-4.5s2-4.5 4.5-4.5 4.5 2 4.5 4.5-2 4.5-4.5 4.5"/><path fill="#FFCE1E" d="M18.1 9c-5 0-9.1 4.1-9.1 9 0 5 4.1 9.1 9.1 9.1s9-4.1 9-9.1c.1-4.9-4-9-9-9m0 13.6c-2.5 0-4.5-2-4.5-4.5s2-4.5 4.5-4.5 4.5 2 4.5 4.5-2 4.5-4.5 4.5"/></svg>