<svg xmlns="http://www.w3.org/2000/svg" viewBox="0 0 33.7 33.7"><path fill="#495353" d="M33.7 16.8c0 9.3-7.5 16.8-16.8 16.8C7.5 33.7 0 26.1 0 16.8S7.5 0 16.8 0s16.9 7.5 16.9 16.8"/><path fill="#72C5EE" d="M30 16.8C30 24.1 24.1 30 16.8 30 9.6 30 3.7 24.1 3.7 16.8S9.6 3.7 16.8 3.7C24.1 3.7 30 9.6 30 16.8"/><path fill="#CF2127" d="M25.9 16.8c0 5-4.1 9-9 9-5 0-9.1-4.1-9.1-9 0-5 4.1-9 9.1-9 4.9 0 9 4 9 9"/><path fill="#FFCE1E" d="M21.4 16.8c0 2.5-2 4.5-4.5 4.5s-4.5-2-4.5-4.5 2-4.5 4.5-4.5c2.4 0 4.5 2 4.5 4.5"/></svg>