<svg xmlns="http://www.w3.org/2000/svg" viewBox="0 0 33.8 33.8"><path fill="#CF2127" d="M33.8 16.9C33.8 7.6 26.2 0 16.9 0S0 7.6 0 16.9c0 9.3 7.6 16.9 16.9 16.9s16.9-7.6 16.9-16.9"/><path fill="#F0EFEF" d="M29.3 16.9c0-6.9-5.6-12.4-12.4-12.4S4.5 10 4.5 16.9s5.6 12.4 12.4 12.4 12.4-5.5 12.4-12.4"/><path fill="#8EACAC" d="M17 5.8c-.9 0-1.6.7-1.6 1.6 0 .9.7 1.6 1.6 1.6.9 0 1.6-.7 1.6-1.6-.1-.9-.8-1.6-1.6-1.6M10.5 8.7c-.9 0-1.6.7-1.6 1.6 0 .9.7 1.6 1.6 1.6.9 0 1.6-.7 1.6-1.6 0-.9-.7-1.6-1.6-1.6M17 24.8c-.9 0-1.6.7-1.6 1.6 0 .9.7 1.6 1.6 1.6.9 0 1.6-.7 1.6-1.6-.1-.9-.8-1.6-1.6-1.6M23.6 21.7c-.9 0-1.6.7-1.6 1.6 0 .9.7 1.6 1.6 1.6.9 0 1.6-.7 1.6-1.6-.1-.9-.8-1.6-1.6-1.6M10.5 21.7c-.9 0-1.6.7-1.6 1.6 0 .9.7 1.6 1.6 1.6.9 0 1.6-.7 1.6-1.6 0-.9-.7-1.6-1.6-1.6M23.6 11.9c.9 0 1.6-.7 1.6-1.6 0-.9-.7-1.6-1.6-1.6-.9 0-1.6.7-1.6 1.6 0 .9.7 1.6 1.6 1.6M26.5 15.3c-.9 0-1.6.7-1.6 1.6 0 .9.7 1.6 1.6 1.6.9 0 1.6-.7 1.6-1.6 0-.9-.8-1.6-1.6-1.6M7.7 15.3c-.9 0-1.6.7-1.6 1.6 0 .9.7 1.6 1.6 1.6s1.6-.7 1.6-1.6c0-.9-.7-1.6-1.6-1.6"/><path fill="#FFCE1E" d="M19.5 16.3l2.9-6.6c.5-1.1 0-2.5-1.2-3-1.1-.5-2.5 0-3 1.2l-3.5 8c-.4.9-.2 1.8.4 2.5.1.1.1.2.2.2l3.2 3.2c.9.9 2.3.9 3.2 0 .9-.9.9-2.3 0-3.2l-2.2-2.3z"/></svg>