<svg xmlns="http://www.w3.org/2000/svg" viewBox="0 0 36.3 35.9"><path fill="#769898" d="M13.7 28.7h9v7.1h-9z"/><path fill="#72C5EE" d="M36.3 30H0V11.6c0-2.4 1.9-4.3 4.3-4.3H32c2.4 0 4.3 1.9 4.3 4.3V30z"/><path fill="#92D8F0" d="M7.4 15.9c-2.5 0-4.5 2-4.5 4.5s2 4.5 4.5 4.5 4.5-2 4.5-4.5-2-4.5-4.5-4.5"/><path fill="#FFCE1E" d="M9.5 2.2C9.5 1 8.6 0 7.4 0 6.1 0 5.2 1 5.2 2.2V20c0 1.2 1 2.2 2.2 2.2 1.2 0 2.2-1 2.2-2.2V2.2z"/><path fill="#CF2127" d="M23.3 1.3H8.8c-1.2 0-2.2 1-2.2 2.2v7.8c0 1.2 1 2.2 2.2 2.2h14.5l-6.1-6.1 6.1-6.1z"/></svg>