<svg xmlns="http://www.w3.org/2000/svg" xmlns:xlink="http://www.w3.org/1999/xlink" viewBox="0 0 44 36.4"><path fill="#FFCE1E" d="M1.2 35.1s-1-8 7.8-16.8l9 9c.1 0-6.1 7.8-16.8 7.8"/><defs><path id="a" d="M15.1 8.4c-.8.7-1.9 1.2-3 1.2-.3 0-.7 0-1-.1-.7-.2-1.3-.2-2-.2-5 0-9.1 4.1-9.1 9.1 0 1.6.4 3.2 1.2 4.5 1.6-2.7 4.5-4.5 7.8-4.5 0 5 4.1 9 9 9 0 3.3-1.8 6.3-4.5 7.8 1.3.8 2.9 1.2 4.5 1.2 5 0 9.1-4.1 9.1-9.1 0-.8-.1-1.6-.3-2.3 0-.3-.1-.5-.1-.8 0-1.1.4-2 1-2.8 13-14.5 7.1-20 7.1-20-.4-.3-1.6-1.2-4-1.2-3.1 0-8.2 1.6-15.7 8.2"/></defs><clipPath id="b"><use xlink:href="#a" overflow="visible"/></clipPath><path clip-path="url(#b)" fill="#CF2127" d="M26.8 24.2c0-1.1.4-2 1-2.8 13-14.5 7.1-20 7.1-20-.9-.8-6.6-4.6-19.7 7-.8.7-1.9 1.2-3 1.2-.3 0-.7 0-1-.1-.7-.2-1.3-.2-2-.2-5 0-9 4.1-9 9.1 0 1.6.4 3.2 1.2 4.5 1.6-2.7 4.5-4.5 7.8-4.5 0 5 4.1 9 9 9 0 3.4-1.8 6.3-4.5 7.8 1.3.8 2.9 1.2 4.5 1.2 5 0 9.1-4.1 9.1-9.1 0-.8-.1-1.6-.3-2.3-.2-.2-.2-.5-.2-.8"/><path clip-path="url(#b)" fill="#FFCE1E" d="M44 1.4c0 5-4.1 9.1-9 9.1-5 0-9.1-4.1-9.1-9.1s4.1-9 9.1-9c4.9 0 9 4 9 9"/><g><defs><path id="c" d="M25.9 1.3v.2c0 5 4.1 9.1 9 9.1h.2c2.6-6.5-.3-9.1-.3-9.1-.4-.3-1.6-1.2-4-1.2-1.3-.1-2.9.2-4.9 1"/></defs></g></svg>