<svg xmlns="http://www.w3.org/2000/svg" xmlns:xlink="http://www.w3.org/1999/xlink" viewBox="0 0 37.5 37.3"><path fill="#53ABDE" d="M30.6 6.8c1.3 1.3.6 2.4-1.3 4.3-.8.8-.8 2.2 0 3 1.4 1.4 3 0 3 0l.6-.6c.9-.9 2.3-.9 3.2 0 .9.9.9 2.3 0 3.2L29 23.8c-.9.9-2.3.9-3.2 0-.9-.9-.9-2.3 0-3.2l.6-.6c.7-.7 1-2 0-3-.8-.8-2-.8-2.7-.2l-9.8 9.8c-.9.9-2.3.9-3.2 0-.9-.9-.9-2.3 0-3.2l8.9-8.9c1.6-1.6 1.9-4.5 0-6.4-3.4-3.4-9.8-3.7-9.8-3.7 8.5-5.7 18.2-.9 20.8 2.4"/><defs><path id="a" d="M9.7 4.5s6.4.3 9.8 3.7c1.9 1.9 1.6 4.8 0 6.4l-8.9 8.9c-.9.9-.9 2.3 0 3.2.9.9 2.3.9 3.2 0l9.8-9.8c.7-.6 1.9-.6 2.7.2 1 1 .7 2.3 0 3l-.6.6c-.9.9-.9 2.3 0 3.2.9.9 2.3.9 3.2 0l7.1-7.1c.9-.9.9-2.3 0-3.2-.9-.9-2.3-.9-3.2 0l-.6.6s-1.6 1.3-3 0c-.8-.8-.8-2.2 0-3 1.9-1.9 2.6-3 1.3-4.3-1.7-2.2-6.6-5-12.1-5-2.8-.1-5.8.6-8.7 2.6"/></defs><clipPath id="b"><use xlink:href="#a" overflow="visible"/></clipPath><path clip-path="url(#b)" fill="#53ABDE" d="M.1 37.3L37.5 0H0"/><path fill="#F9A01B" d="M35.5 32.2c.9-.9.9-2.3 0-3.2-.9-.9-2.3-.9-3.2 0-.9-.9-2.3-.9-3.2 0-.9.9-.9 2.3 0 3.2-.9.9-.9 2.3 0 3.2.9.9 2.3.9 3.2 0 .9.9 2.3.9 3.2 0 .9-.9.9-2.3 0-3.2"/><g><path fill="#DBB446" d="M17.9 25.5l-.1.1-9.7 9.7c-1.7 1.7-4.5 1.7-6.2 0-1.7-1.7-1.7-4.5 0-6.2l9.7-9.7.1-.1c1.7-1.6 4.4-1.6 6.1.1 1.7 1.7 1.7 4.4.1 6.1z"/><path fill="#495353" d="M17.9 25.5l-6.2-6.2c1.7-1.6 4.4-1.6 6.1.1 1.7 1.7 1.7 4.4.1 6.1z"/></g></svg>